name Walk6.mot
datacolumns 19
datarows 25
range 1.96600000 1.99000000
endheader

                time	   L_ground_force_vx	   L_ground_force_vy	   L_ground_force_vz	   L_ground_force_px	   L_ground_force_py	   L_ground_force_pz	   R_ground_force_vx	   R_ground_force_vy	   R_ground_force_vz	   R_ground_force_px	   R_ground_force_py	   R_ground_force_pz	   L_ground_torque_x	   L_ground_torque_y	   L_ground_torque_z	   R_ground_torque_x	   R_ground_torque_y	   R_ground_torque_z	
          1.96600000	         -0.58641587	         59.30484935	         -1.67024230	         -0.00245475	          0.00000000	         -0.00542143	         -0.00000000	          0.00000000	         -0.00000000	          0.00000000	          0.00000000	          0.00000000	          0.00000000	          0.04270316	          0.00000000	          0.00000000	          0.00000000	          0.00000000	
          1.96700000	         -1.39640231	         65.68909278	         -1.83662229	         -0.01638165	          0.00000000	         -0.00643516	         -0.00000000	          0.00000000	         -0.00000000	          0.00000000	          0.00000000	          0.00000000	          0.00000000	          0.06875840	          0.00000000	          0.00000000	          0.00000000	          0.00000000	
          1.96800000	         -2.21893802	         72.24651229	         -2.01237489	         -0.03026499	          0.00000000	         -0.00745475	         -0.00000000	          0.00000000	         -0.00000000	          0.00000000	          0.00000000	          0.00000000	          0.00000000	          0.09513005	          0.00000000	          0.00000000	          0.00000000	          0.00000000	
          1.96900000	         -3.05282501	         78.96886965	         -2.19761437	         -0.04406400	          0.00000000	         -0.00847777	         -0.00000000	          0.00000000	         -0.00000000	          0.00000000	          0.00000000	          0.00000000	          0.00000000	          0.12176983	          0.00000000	          0.00000000	          0.00000000	          0.00000000	
          1.97000000	         -3.89683739	         85.84681311	         -2.39242353	         -0.05773773	          0.00000000	         -0.00950165	         -0.00000000	          0.00000000	          0.00000000	          0.00000000	          0.00000000	          0.00000000	          0.00000000	          0.14862827	          0.00000000	          0.00000000	          0.00000000	          0.00000000	
          1.97100000	         -4.74973939	         92.86984294	         -2.59685074	         -0.07124607	          0.00000000	         -0.01052371	         -0.00000000	          0.00000000	          0.00000000	          0.00000000	          0.00000000	          0.00000000	          0.00000000	          0.17565570	          0.00000000	          0.00000000	          0.00000000	          0.00000000	
          1.97200000	         -5.61033102	        100.02634609	         -2.81090620	         -0.08455137	          0.00000000	         -0.01154119	         -0.00000000	          0.00000000	          0.00000000	          0.00000000	          0.00000000	          0.00000000	          0.00000000	          0.20280408	          0.00000000	          0.00000000	          0.00000000	          0.00000000	
          1.97300000	         -6.47750221	        107.30366912	         -3.03455653	         -0.09761951	          0.00000000	         -0.01255126	         -0.00000000	          0.00000000	          0.00000000	          0.00000000	          0.00000000	          0.00000000	          0.00000000	          0.23002858	          0.00000000	          0.00000000	          0.00000000	          0.00000000	
          1.97400000	         -7.35028142	        114.68821301	         -3.26771713	         -0.11041998	          0.00000000	         -0.01355119	         -0.00000000	          0.00000000	          0.00000000	          0.00000000	          0.00000000	          0.00000000	          0.00000000	          0.25728814	          0.00000000	          0.00000000	          0.00000000	          0.00000000	
          1.97500000	         -8.22788031	        122.16556512	         -3.51024180	         -0.12292581	          0.00000000	         -0.01453838	         -0.00000000	          0.00000000	          0.00000000	          0.00000000	          0.00000000	          0.00000000	          0.00000000	          0.28454535	          0.00000000	          0.00000000	          0.00000000	          0.00000000	
          1.97600000	         -9.10973411	        129.72067763	         -3.76190976	         -0.13511334	          0.00000000	         -0.01551039	         -0.00000000	          0.00000000	          0.00000000	          0.00000000	          0.00000000	          0.00000000	          0.00000000	          0.31176611	          0.00000000	          0.00000000	          0.00000000	          0.00000000	
          1.97700000	         -9.99553348	        137.33808633	         -4.02241012	         -0.14696206	          0.00000000	         -0.01646505	         -0.00000000	          0.00000000	          0.00000000	          0.00000000	          0.00000000	          0.00000000	          0.00000000	          0.33891909	          0.00000000	          0.00000000	          0.00000000	          0.00000000	
          1.97800000	        -10.88524434	        145.00215391	         -4.29132475	         -0.15845443	          0.00000000	         -0.01740041	         -0.00000000	          0.00000000	          0.00000000	          0.00000000	          0.00000000	          0.00000000	          0.00000000	          0.36597541	          0.00000000	          0.00000000	          0.00000000	          0.00000000	
          1.97900000	        -11.77911296	        152.69731560	         -4.56811080	         -0.16957568	          0.00000000	         -0.01831480	         -0.00000000	          0.00000000	          0.00000000	          0.00000000	          0.00000000	          0.00000000	          0.00000000	          0.39290853	          0.00000000	          0.00000000	          0.00000000	          0.00000000	
          1.98000000	        -12.67765573	        160.40830399	         -4.85208464	         -0.18031365	          0.00000000	         -0.01920677	         -0.00000000	          0.00000000	          0.00000000	          0.00000000	          0.00000000	          0.00000000	          0.00000000	          0.41969427	          0.00000000	          0.00000000	          0.00000000	          0.00000000	
          1.98100000	        -13.58163451	        168.12033608	         -5.14240916	         -0.19065861	          0.00000000	         -0.02007514	         -0.00000000	          0.00000000	          0.00000000	          0.00000000	          0.00000000	          0.00000000	          0.00000000	          0.44631085	          0.00000000	          0.00000000	          0.00000000	          0.00000000	
          1.98200000	        -14.49202064	        175.81925453	         -5.43808635	         -0.20060306	          0.00000000	         -0.02091891	         -0.00000000	          0.00000000	          0.00000000	          0.00000000	          0.00000000	          0.00000000	          0.00000000	          0.47273872	          0.00000000	          0.00000000	          0.00000000	          0.00000000	
          1.98300000	        -15.40995134	        183.49162422	         -5.73795657	         -0.21014159	          0.00000000	         -0.02173730	         -0.00000000	          0.00000000	          0.00000000	          0.00000000	          0.00000000	          0.00000000	          0.00000000	          0.49896013	          0.00000000	          0.00000000	          0.00000000	          0.00000000	
          1.98400000	        -16.33668261	        191.12479107	         -6.04070485	         -0.21927070	          0.00000000	         -0.02252970	         -0.00000000	          0.00000000	          0.00000000	          0.00000000	          0.00000000	          0.00000000	          0.00000000	          0.52495848	          0.00000000	          0.00000000	          0.00000000	          0.00000000	
          1.98500000	        -17.27354193	        198.70691328	         -6.34487361	         -0.22798869	          0.00000000	         -0.02329568	         -0.00000000	          0.00000000	          0.00000000	          0.00000000	          0.00000000	          0.00000000	          0.00000000	          0.55071746	          0.00000000	          0.00000000	          0.00000000	          0.00000000	
          1.98600000	        -18.22188317	        206.22697611	         -6.64888026	         -0.23629547	          0.00000000	         -0.02403497	         -0.00000000	          0.00000000	          0.00000000	          0.00000000	          0.00000000	          0.00000000	          0.00000000	          0.57622012	          0.00000000	          0.00000000	          0.00000000	          0.00000000	
          1.98700000	        -19.18304497	        213.67480004	         -6.95103799	         -0.24419248	          0.00000000	         -0.02474742	         -0.00000000	          0.00000000	          0.00000000	          0.00000000	          0.00000000	          0.00000000	          0.00000000	          0.60144785	          0.00000000	          0.00000000	          0.00000000	          0.00000000	
          1.98800000	        -20.15831357	        221.04105024	         -7.24957824	         -0.25168252	          0.00000000	         -0.02543306	         -0.00000000	          0.00000000	          0.00000000	          0.00000000	          0.00000000	          0.00000000	          0.00000000	          0.62637950	          0.00000000	          0.00000000	          0.00000000	          0.00000000	
          1.98900000	        -21.14889107	        228.31725151	         -7.54267376	         -0.25876963	          0.00000000	         -0.02609201	         -0.00000000	          0.00000000	          0.00000000	          0.00000000	          0.00000000	         -0.00000000	          0.00000000	          0.65099077	          0.00000000	          0.00000000	          0.00000000	          0.00000000	
          1.99000000	        -22.15586974	        235.49580929	         -7.82846137	         -0.26545898	          0.00000000	         -0.02672452	         -0.00000000	          0.00000000	          0.00000000	         -0.00000000	          0.00000000	         -0.00000000	          0.00000000	          0.67525408	          0.00000000	          0.00000000	          0.00000000	          0.00000000	
